PathFileType	4	(X/Y/Z)	14_coords_data.trc
DataRate	CameraRate	NumFrames	NumMarkers	Units	OrigDataRate	OrigDataStartFrame	OrigNumFrames
30.0	30.0	5	21	m	30.0	20	68
Frame#	Time	THUMB_TIP	THUMB_IP	THUMB_MCP	THUMB_CMC	INDEX_TIP	INDEX_DIP	INDEX_PIP	INDEX_MCP	MIDDLE_TIP	MIDDLE_DIP	MIDDLE_PIP	MIDDLE_MCP	RING_TIP	RING_DIP	RING_PIP	RING_MCP	PINKY_TIP	PINKY_DIP	PINKY_PIP	PINKY_MCP	WRIST
X1	Y1	Z1	X2	Y2	Z2	X3	Y3	Z3	X4	Y4	Z4	X5	Y5	Z5	X6	Y6	Z6	X7	Y7	Z7	X8	Y8	Z8	X9	Y9	Z9	X10	Y10	Z10	X11	Y11	Z11	X12	Y12	Z12	X13	Y13	Z13	X14	Y14	Z14	X15	Y15	Z15	X16	Y16	Z16	X17	Y17	Z17	X18	Y18	Z18	X19	Y19	Z19	X20	Y20	Z20	X21	Y21	Z21
19	0.6333333333333333	0.04620750045776367	0.02821980094909668	0.9418400268554687	0.02677720069885254	0.026716899871826173	0.9589580078125	0.011065600395202636	0.022045299530029296	0.98377001953125	-0.013566200256347655	0.03550400161743164	0.9983599853515625	0.044112098693847655	0.03373160171508789	0.9122030029296875	0.029875900268554686	0.01869820022583008	0.9156710205078125	0.012813799858093262	0.004982560157775879	0.9248629760742187	-0.010718999862670898	-0.004770120143890381	0.9528159790039062	0.041513999938964846	0.053853500366210935	0.9062589721679688	0.023976600646972657	0.04116839981079102	0.9087490234375	0.0016777900457382203	0.025291000366210938	0.9154769897460937	-0.029012300491333007	0.009505339622497559	0.9412440185546875	0.029661100387573244	0.06967269897460937	0.9152730102539063	0.01130329990386963	0.05887459945678711	0.9153619995117187	-0.011206999778747558	0.045632598876953125	0.9188610229492188	-0.03915900039672852	0.029503000259399413	0.9382559814453125	0.003916899919509887	0.08134320068359376	0.922468017578125	-0.011658300399780273	0.07229460144042969	0.9241790161132812	-0.026759700775146486	0.06275289916992187	0.9288920288085938	-0.0455457992553711	0.04841139984130859	0.942530029296875	-0.04853630065917969	0.03825540161132813	1.012989990234375
20	0.6666666666666666	0.045994400024414066	0.027997600555419923	0.9410869750976563	0.026522100448608397	0.02676099967956543	0.958864013671875	0.010958399772644043	0.02205820083618164	0.983614013671875	-0.013582799911499023	0.03539139938354492	0.9981909790039063	0.04415069961547852	0.0336776008605957	0.9122579956054687	0.02988789939880371	0.018627399444580077	0.915969970703125	0.012906999588012695	0.004844089984893799	0.9248930053710938	-0.010635299682617188	-0.0049425501823425295	0.95285302734375	0.04162300109863281	0.05368899917602539	0.90625	0.024021099090576172	0.04099200057983399	0.90872900390625	0.001719609975814819	0.025094600677490236	0.9155789794921875	-0.029062200546264648	0.009329950332641602	0.9412919921875	0.029588199615478514	0.06953919982910156	0.9151160278320313	0.011323200225830079	0.05868009948730469	0.9152470092773437	-0.011196000099182129	0.045410400390625	0.9188519897460937	-0.03912519836425781	0.02927050018310547	0.9382550048828125	0.003916749954223633	0.08114710235595703	0.9223779907226562	-0.011664999961853027	0.07205380249023438	0.9241580200195313	-0.02674729919433594	0.06251750183105469	0.9289030151367188	-0.045602001190185544	0.04823130035400391	0.9427020263671875	-0.04832619857788086	0.03818069839477539	1.01302001953125
21	0.7	0.04570660018920898	0.027478700637817384	0.9410560302734375	0.02634950065612793	0.02626350021362305	0.95856201171875	0.011033699989318848	0.021561899185180665	0.9832960205078125	-0.01346109962463379	0.03530020141601563	0.998239013671875	0.04414939880371094	0.033534698486328125	0.9122930297851563	0.030022600173950195	0.018489700317382812	0.9158189697265625	0.012957200050354004	0.004679379940032959	0.9248300170898438	-0.010649800300598145	-0.005125599861145019	0.9528109741210937	0.04162220001220703	0.05360070037841797	0.9063729858398437	0.02400790023803711	0.04085419845581055	0.9087630004882813	0.001763560056686401	0.0249375	0.9154299926757813	-0.02897159957885742	0.009110269546508789	0.9411749877929687	0.029668699264526366	0.06940380096435547	0.9153159790039063	0.011333999633789062	0.05853459930419922	0.9152650146484375	-0.011210700035095215	0.045238201141357424	0.9188380126953125	-0.039040401458740236	0.029119699478149415	0.9381630249023437	0.0038773200511932372	0.08099819946289062	0.9223980102539062	-0.011640899658203125	0.07188400268554687	0.92414599609375	-0.026706199645996093	0.06235300064086914	0.92889697265625	-0.04555199813842774	0.04810910034179688	0.9428150024414063	-0.0485171012878418	0.03783290100097656	1.0128699951171876
22	0.7333333333333333	0.045631999969482424	0.02730459976196289	0.9411500244140625	0.026236600875854492	0.025826299667358398	0.9584769897460937	0.010896200180053712	0.021319299697875976	0.9831959838867188	-0.013829999923706055	0.035342300415039066	0.9985070190429688	0.04422689819335938	0.033342300415039064	0.91218701171875	0.02988319969177246	0.01827739906311035	0.9159019775390626	0.012905500411987304	0.004440289974212646	0.9247670288085937	-0.010632200241088867	-0.005336019992828369	0.9526790161132812	0.04156219863891602	0.05326150131225586	0.906322021484375	0.024063800811767577	0.040599998474121095	0.9086580200195312	0.0017561299800872802	0.024691999435424803	0.915426025390625	-0.028995000839233398	0.00894303035736084	0.9411480102539063	0.02969339942932129	0.06912909698486328	0.9152420043945313	0.011370599746704102	0.058327899932861325	0.9151690063476563	-0.011168800354003906	0.04505300140380859	0.9187739868164062	-0.0390359001159668	0.02903689956665039	0.9385280151367188	0.003932399988174438	0.08076419830322265	0.9223510131835938	-0.011605299949645997	0.07170259857177734	0.9241069946289062	-0.026679500579833985	0.062137298583984375	0.9288560180664063	-0.04551670074462891	0.047915298461914065	0.942666015625	-0.04828269958496094	0.03776810073852539	1.012969970703125
23	0.7666666666666667	0.04560229873657227	0.026638700485229493	0.9410390014648438	0.02621809959411621	0.025610099792480467	0.9585269775390625	0.010760199546813965	0.02106649971008301	0.983364013671875	-0.013584099769592285	0.034829601287841794	0.9983250122070313	0.04443949890136719	0.033002399444580076	0.9122839965820313	0.030065700531005858	0.017950000762939452	0.9158779907226563	0.013004300117492675	0.004170730113983155	0.9247550048828125	-0.01066860008239746	-0.005619760036468506	0.952698974609375	0.041887199401855466	0.05292900085449219	0.9062210083007812	0.024242599487304686	0.040289501190185546	0.9087630004882813	0.00192399001121521	0.024439599990844725	0.915427978515625	-0.02893400001525879	0.008702569961547852	0.9411900024414063	0.02997060012817383	0.06875160217285156	0.9153099975585938	0.011553500175476074	0.05804010009765625	0.9152030029296875	-0.010975899696350098	0.044790000915527345	0.9187969970703125	-0.03888249969482422	0.028878000259399413	0.93856201171875	0.004253270149230957	0.08051860046386719	0.9224810180664063	-0.011357199668884278	0.07149549865722657	0.9242429809570313	-0.026452999114990234	0.06196379852294922	0.92889501953125	-0.04533349990844727	0.04776839828491211	0.9426840209960937	-0.04861019897460937	0.03751179885864258	1.012719970703125
